<?xml version="1.0" encoding="UTF-8"?>
<svg width="28px" height="28px" viewBox="0 0 28 28" version="1.1" xmlns="http://www.w3.org/2000/svg" xmlns:xlink="http://www.w3.org/1999/xlink">
    <!-- Generator: Sketch 54.1 (76490) - https://sketchapp.com -->
    <title>Shape</title>
    <desc>Created with Sketch.</desc>
    <g id="Symbols" stroke="none" stroke-width="1" fill="none" fill-rule="evenodd">
        <g id="Header" transform="translate(-926.000000, -30.000000)" fill="#FFFFFF" fill-rule="nonzero">
            <path d="M949.570772,46.6908602 C948.959626,46.0573477 948.222472,45.718638 947.441214,45.718638 C946.666256,45.718638 945.922801,46.0510753 945.286454,46.6845878 L943.295506,48.6603943 C943.131694,48.5725806 942.967882,48.4910394 942.81037,48.4094982 C942.583553,48.296595 942.369337,48.1899642 942.186624,48.0770609 C940.321686,46.8978495 938.62686,45.3611111 937.001339,43.3727599 C936.213781,42.3817204 935.684542,41.547491 935.300213,40.7007168 C935.816852,40.2302867 936.295687,39.7410394 936.761922,39.2706093 C936.938335,39.0949821 937.114748,38.9130824 937.291161,38.7374552 C938.614259,37.4202509 938.614259,35.7141577 937.291161,34.3969534 L935.571133,32.6845878 C935.375819,32.4901434 935.174204,32.2894265 934.98519,32.0887097 C934.607162,31.6998208 934.210232,31.2983871 933.800702,30.922043 C933.189557,30.3198925 932.458703,30 931.690046,30 C930.921389,30 930.177933,30.3198925 929.547887,30.922043 C929.541586,30.9283154 929.541586,30.9283154 929.535286,30.9345878 L927.393127,33.0860215 C926.586667,33.8888889 926.126733,34.8673835 926.025925,36.0026882 C925.874714,37.8342294 926.416554,39.5403226 926.832385,40.65681 C927.853061,43.3978495 929.377774,45.938172 931.652243,48.6603943 C934.411847,51.9408602 937.732194,54.531362 941.525075,56.3566308 C942.974182,57.0403226 944.908426,57.8494624 947.069486,57.9874552 C947.201796,57.9937276 947.340406,58 947.466415,58 C948.921823,58 950.144114,57.4793907 951.101785,56.4444444 C951.108086,56.4318996 951.120686,56.4256272 951.126987,56.4130824 C951.454611,56.0179211 951.832639,55.6603943 952.229569,55.2777778 C952.500489,55.0206093 952.777709,54.7508961 953.048629,54.468638 C953.672376,53.8225806 954,53.0698925 954,52.2983871 C954,51.5206093 953.666075,50.7741935 953.029728,50.1469534 L949.570772,46.6908602 Z M951.530573,53.0588535 C951.524427,53.0588535 951.524427,53.0649682 951.530573,53.0588535 C951.290867,53.3156688 951.045015,53.5480255 950.780724,53.8048408 C950.381214,54.183949 949.975558,54.5814013 949.594487,55.0277707 C948.97371,55.6881529 948.242299,56 947.283475,56 C947.191281,56 947.09294,56 947.000745,55.9938854 C945.175292,55.877707 943.478912,55.1684076 942.206627,54.5630573 C938.727817,52.8876433 935.673103,50.5090446 933.134679,47.4945223 C931.038788,44.9814013 929.63743,42.6578344 928.709338,40.1630573 C928.137732,38.6405096 927.928757,37.4542675 928.020952,36.3352866 C928.082415,35.6198726 928.358999,35.0267516 928.869142,34.5192357 L930.965032,32.4341401 C931.266201,32.1528662 931.585809,32 931.899271,32 C932.286488,32 932.59995,32.2323567 932.796632,32.4280255 C932.802778,32.4341401 932.808924,32.4402548 932.815071,32.4463694 C933.189995,32.7949045 933.546481,33.1556688 933.921406,33.5408917 C934.111941,33.7365605 934.308623,33.9322293 934.505305,34.1340127 L936.183246,35.8033121 C936.834755,36.451465 936.834755,37.0507006 936.183246,37.6988535 C936.005004,37.8761783 935.832907,38.0535032 935.654664,38.2247134 C935.138374,38.7505732 934.64667,39.2397452 934.111941,39.7166879 C934.099649,39.7289172 934.087356,39.7350318 934.08121,39.7472611 C933.552627,40.273121 933.650968,40.7867516 933.761602,41.1352866 C933.767748,41.1536306 933.773894,41.1719745 933.780041,41.1903185 C934.216428,42.2420382 934.831059,43.2326115 935.765298,44.4127389 L935.771444,44.4188535 C937.467824,46.4978344 939.2564,48.1182166 941.229364,49.3594904 C941.481362,49.5184713 941.739507,49.646879 941.985359,49.769172 C942.206627,49.8792357 942.415601,49.9831847 942.593844,50.0932484 C942.618429,50.1054777 942.643014,50.1238217 942.667599,50.136051 C942.876574,50.24 943.073256,50.2889172 943.276084,50.2889172 C943.786227,50.2889172 944.105835,49.9709554 944.210322,49.8670064 L946.312359,47.7757962 C946.521333,47.5678981 946.853234,47.3171975 947.240451,47.3171975 C947.621522,47.3171975 947.934984,47.5556688 948.125519,47.7635669 C948.131666,47.7696815 948.131666,47.7696815 948.137812,47.7757962 L951.524427,51.1449682 C952.157496,51.7686624 952.157496,52.4107006 951.530573,53.0588535 Z" id="Shape"></path>
        </g>
    </g>
</svg>