<?xml version="1.0" encoding="UTF-8"?>
<svg width="42px" height="43px" viewBox="0 0 42 43" version="1.1" xmlns="http://www.w3.org/2000/svg" xmlns:xlink="http://www.w3.org/1999/xlink">
    <!-- Generator: Sketch 54.1 (76490) - https://sketchapp.com -->
    <title>Shape</title>
    <desc>Created with Sketch.</desc>
    <g id="Symbols" stroke="none" stroke-width="1" fill="none" fill-rule="evenodd">
        <g id="Header" transform="translate(-1317.000000, -77.000000)" fill="#FFFFFF" fill-rule="nonzero">
            <g id="Group-2" transform="translate(34.000000, 34.000000)">
                <g id="musica-searcher-(1)" transform="translate(1284.000000, 43.000000)">
                    <path d="M39.9721148,36.6965334 L30.8478299,27.5724162 C30.7993384,27.5239248 30.7424574,27.4900311 30.6917847,27.4448954 C32.487144,24.7214862 33.5349963,21.4614827 33.5349963,17.955666 C33.5349963,8.41895177 25.8040446,0.688 16.2674982,0.688 C6.73095177,0.688 -1,8.41895177 -1,17.9554982 C-1,27.4918768 6.73078398,35.2229963 16.2673304,35.2229963 C19.7733149,35.2229963 23.0331506,34.175144 25.7565598,32.3797847 C25.8016955,32.4302896 25.8354214,32.4871706 25.8839129,32.5356621 L35.0083656,41.6601148 C36.3790469,43.0306284 38.6012656,43.0306284 39.9721148,41.6601148 C41.3426284,40.2894334 41.3426284,38.0672147 39.9721148,36.6965334 Z M16.5000855,29.688 C10.148664,29.688 5,24.539336 5,18.1880855 C5,11.836664 10.1488351,6.688 16.5000855,6.688 C22.8511649,6.688 28,11.8368351 28,18.1880855 C28,24.539336 22.8511649,29.688 16.5000855,29.688 Z" id="Shape"></path>
                </g>
            </g>
        </g>
    </g>
</svg>